<?xml version="1.0" encoding="utf-8"?>
<!-- Generator: Adobe Illustrator 24.3.0, SVG Export Plug-In . SVG Version: 6.00 Build 0)  -->
<svg version="1.1" id="Layer_1" xmlns="http://www.w3.org/2000/svg" xmlns:xlink="http://www.w3.org/1999/xlink" x="0px" y="0px"
	 viewBox="0 0 348.3 97" style="enable-background:new 0 0 348.3 97;" xml:space="preserve">
<style type="text/css">
	.st0{fill:#E30613;}
	.st1{fill:#FFFFFF;}
	.st2{fill:#C6C6C6;}
</style>
<g>
	<path class="st0" d="M48.1,78.6c-18.9,0-34.2-15.3-34.2-34.2c0-5.5,1.3-10.8,3.7-15.4l28.3,28.3l9.6-21.9L23.9,3.8l-0.2,0.2
		l-0.2-0.2h-20v89.9h66.7L54.5,78C52.4,78.4,50.3,78.6,48.1,78.6z"/>
	<path class="st1" d="M34.9,3.8l7,7c2-0.4,4.1-0.6,6.3-0.6c18.9,0,34.2,15.3,34.2,34.2c0,3.3-0.5,6.4-1.3,9.4l14.1,14.1V3.8H34.9z"
		/>
</g>
<g>
	<path class="st1" d="M116.8,8.8h20.1v42.9H165v17.1h-48.3V8.8z"/>
	<path class="st1" d="M190.3,8.3h19.9l25.3,60.4h-21.8l-3.2-8.1h-21l-3.1,8.1H165L190.3,8.3z M205.6,46.5l-5.5-14.6l-5.5,14.6H205.6
		z"/>
	<path class="st1" d="M238,8.8h50.2v17.1H258v7.6h28v15.6h-28v19.6H238V8.8z"/>
	<path class="st1" d="M292.9,8.8h51.2v16.5h-31.5v6.1h29.3v14.5h-29.3v6.5h31.9v16.5h-51.6V8.8z"/>
</g>
<g>
	<path class="st2" d="M121.3,80.1h-3.9v-0.8h8.7v0.8h-3.9v10.5h-0.8V80.1z"/>
	<path class="st2" d="M128.8,79.3h0.8v11.2h-0.8V79.3z"/>
	<path class="st2" d="M133,79.3h8v0.8h-7.2v4.4h6.4v0.8h-6.4v4.5h7.2v0.8H133V79.3z"/>
	<path class="st2" d="M143.8,79.3h0.8l7.8,9.8v-9.8h0.8v11.2h-0.6l-7.9-10v10h-0.8V79.3z"/>
	<path class="st2" d="M156.5,79.3h3.7c3.5,0,6,2.4,6,5.6v0c0,3.2-2.4,5.6-6,5.6h-3.7V79.3z M157.3,80.1v9.7h2.9
		c3.1,0,5.1-2.1,5.1-4.8v0c0-2.7-2-4.8-5.1-4.8H157.3z"/>
	<path class="st2" d="M172.6,79.2h0.8l5.2,11.3h-0.9l-1.4-3.1h-6.6l-1.4,3.1h-0.9L172.6,79.2z M175.9,86.6l-3-6.5l-3,6.5H175.9z"/>
	<path class="st2" d="M185.8,79.3h3.7c3.5,0,6,2.4,6,5.6v0c0,3.2-2.4,5.6-6,5.6h-3.7V79.3z M186.6,80.1v9.7h2.9
		c3.1,0,5.1-2.1,5.1-4.8v0c0-2.7-2-4.8-5.1-4.8H186.6z"/>
	<path class="st2" d="M198.4,79.3h8v0.8h-7.2v4.4h6.4v0.8h-6.4v4.5h7.2v0.8h-8.1V79.3z"/>
	<path class="st2" d="M213.9,79.3h0.8v5.2h7.2v-5.2h0.8v11.2H222v-5.3h-7.2v5.3h-0.8V79.3z"/>
	<path class="st2" d="M226.1,79.3h8v0.8H227v4.4h6.4v0.8H227v4.5h7.2v0.8h-8.1V79.3z"/>
	<path class="st2" d="M236.9,79.3h4.7c1.4,0,2.5,0.4,3.2,1.1c0.5,0.5,0.9,1.3,0.9,2.1v0c0,1.9-1.4,3-3.3,3.2l3.7,4.8H245l-3.6-4.7
		h-3.7v4.7h-0.8V79.3z M241.5,85.1c1.9,0,3.3-0.9,3.3-2.6v0c0-1.5-1.2-2.5-3.2-2.5h-3.8v5.1H241.5z"/>
	<path class="st2" d="M248.5,79.3h4.7c1.4,0,2.5,0.4,3.2,1.1c0.5,0.5,0.9,1.3,0.9,2.1v0c0,1.9-1.4,3-3.3,3.2l3.7,4.8h-1.1l-3.6-4.7
		h-3.7v4.7h-0.8V79.3z M253.1,85.1c1.9,0,3.3-0.9,3.3-2.6v0c0-1.5-1.2-2.5-3.2-2.5h-3.8v5.1H253.1z"/>
	<path class="st2" d="M264.4,79.2h0.8l5.2,11.3h-0.9l-1.4-3.1h-6.6l-1.4,3.1h-0.9L264.4,79.2z M267.7,86.6l-3-6.5l-3,6.5H267.7z"/>
	<path class="st2" d="M272.8,79.3h0.8l4.5,6.6l4.5-6.6h0.8v11.2h-0.8v-9.8l-4.4,6.5H278l-4.4-6.5v9.8h-0.8V79.3z"/>
	<path class="st2" d="M286.8,79.3h0.8v11.2h-0.8V79.3z"/>
	<path class="st2" d="M291.1,79.3h8v0.8H292v4.4h6.4v0.8H292v4.5h7.2v0.8h-8.1V79.3z"/>
	<path class="st2" d="M301.9,79.3h0.8l7.8,9.8v-9.8h0.8v11.2h-0.6l-7.9-10v10h-0.8V79.3z"/>
	<path class="st2" d="M317.7,80.1h-3.9v-0.8h8.7v0.8h-3.9v10.5h-0.8V80.1z"/>
	<path class="st2" d="M327.8,79.2h0.8l5.2,11.3h-0.9l-1.4-3.1h-6.6l-1.4,3.1h-0.9L327.8,79.2z M331.1,86.6l-3-6.5l-3,6.5H331.1z"/>
	<path class="st2" d="M335.3,88.9l0.5-0.6c1.2,1.1,2.4,1.7,4,1.7c1.7,0,2.8-0.9,2.8-2.2v0c0-1.2-0.6-1.9-3.2-2.4
		c-2.7-0.5-3.8-1.5-3.8-3.2v0c0-1.7,1.5-3,3.6-3c1.6,0,2.7,0.5,3.9,1.4l-0.5,0.7c-1.1-0.9-2.1-1.3-3.4-1.3c-1.7,0-2.7,0.9-2.7,2.1v0
		c0,1.2,0.6,1.9,3.3,2.5c2.6,0.5,3.7,1.5,3.7,3.1v0c0,1.8-1.6,3.1-3.7,3.1C338,90.7,336.6,90.1,335.3,88.9z"/>
</g>
</svg>
